<svg id="Layer_1" data-name="Layer 1" xmlns="http://www.w3.org/2000/svg" viewBox="0 0 697.68 833.34"><defs><style>.cls-1{fill:none;stroke:lime;stroke-miterlimit:10;stroke-width:14px;}.cls-2{fill:gray;}.cls-3{fill:#ccc;}.cls-4{fill:#fff;}.cls-5{fill:#bffff8;}</style></defs><title>rocketShip</title><path class="cls-1" d="M63.75,366.11" transform="translate(99.35 70.11)"/><polygon class="cls-2" points="8.36 831.82 8.23 825.81 10.04 825.83 9.84 831.82 8.36 831.82"/><polygon class="cls-2" points="8.11 813.82 8.19 801.82 11.29 801.95 10.57 813.88 8.11 813.82"/><polygon class="cls-2" points="8.49 789.82 8.99 777.83 13.21 778.13 12.15 790.03 8.49 789.82"/><polygon class="cls-2" points="9.68 765.83 10.57 753.85 15.9 754.42 14.46 766.26 9.68 765.83"/><polygon class="cls-2" points="11.66 741.88 12.95 729.92 19.38 730.82 17.54 742.6 11.66 741.88"/><polygon class="cls-2" points="14.46 717.98 16.22 706.07 23.63 707.38 21.42 719.08 14.46 717.98"/><polygon class="cls-2" points="18.19 694.19 20.39 682.34 28.69 684.13 26.05 695.73 18.19 694.19"/><polygon class="cls-2" points="22.81 670.52 25.49 658.76 34.63 661.12 31.55 672.59 22.81 670.52"/><polygon class="cls-2" points="28.44 647.05 31.64 635.4 41.42 638.38 37.91 649.71 28.44 647.05"/><polygon class="cls-2" points="35.1 623.81 38.84 612.3 49.22 616 45.2 627.14 35.1 623.81"/><polygon class="cls-2" points="42.85 600.87 47.13 589.52 58.14 594.1 53.53 604.98 42.85 600.87"/><polygon class="cls-2" points="51.69 578.26 56.56 567.11 68.36 572.85 63.09 583.38 51.69 578.26"/><polygon class="cls-2" points="61.79 556.09 67.46 545.27 79.8 552.33 73.94 562.5 61.79 556.09"/><polygon class="cls-2" points="73.62 534.69 76.94 529.53 80.31 524.4 92.32 532.6 89.14 537.5 85.92 542.36 73.62 534.69"/><polygon class="cls-2" points="87.55 514.45 95.35 504.9 106.09 513.86 99.02 523.09 87.55 514.45"/><polygon class="cls-2" points="103.75 495.83 112.73 487.31 121.42 496.52 113.53 504.98 103.75 495.83"/><path class="cls-2" d="M23,409.34c3.3-2.5,6.72-4.85,10.22-7.07l6.13,8.85c-3.06,2.32-6,4.8-8.89,7.35Z" transform="translate(99.35 70.11)"/><path class="cls-2" d="M44.06,396.18a107.57,107.57,0,0,1,11.39-5l3.29,7.47c-3.41,1.81-6.76,3.7-10,5.79Z" transform="translate(99.35 70.11)"/><path class="cls-2" d="M67.3,387.56c2-.49,4-.89,6-1.25s4.07-.64,6.1-.86l.89,4.68c-1.89.51-3.75,1.08-5.6,1.7s-3.66,1.31-5.46,2Z" transform="translate(99.35 70.11)"/><path class="cls-2" d="M91.67,385c2,.14,4.07.27,6.08.43v1.4c-2,.3-4,.54-5.91.81Z" transform="translate(99.35 70.11)"/><rect class="cls-2" x="-91.63" y="752.61" width="2.8" height="18.2" transform="translate(-751.4 732.01) rotate(-89.28)"/><polygon class="cls-2" points="687.85 831.58 687.65 825.58 689.45 825.57 689.32 831.58 687.85 831.58"/><polygon class="cls-2" points="687.11 813.64 686.39 801.7 689.5 801.58 689.57 813.58 687.11 813.64"/><polygon class="cls-2" points="685.53 789.79 684.48 777.89 688.7 777.58 689.19 789.58 685.53 789.79"/><polygon class="cls-2" points="683.23 766.02 681.79 754.17 687.12 753.61 688 765.59 683.23 766.02"/><polygon class="cls-2" points="680.15 742.36 678.31 730.58 684.73 729.68 686.02 741.63 680.15 742.36"/><polygon class="cls-2" points="676.27 718.84 674.06 707.14 681.47 705.83 683.22 717.74 676.27 718.84"/><polygon class="cls-2" points="671.63 695.49 668.99 683.89 677.3 682.09 679.5 693.94 671.63 695.49"/><polygon class="cls-2" points="666.13 672.35 663.06 660.87 672.2 658.51 674.87 670.28 666.13 672.35"/><polygon class="cls-2" points="659.78 649.46 656.26 638.13 666.05 635.15 669.25 646.81 659.78 649.46"/><polygon class="cls-2" points="652.49 626.9 648.46 615.76 658.85 612.06 662.58 623.57 652.49 626.9"/><polygon class="cls-2" points="644.15 604.74 639.54 593.86 650.55 589.28 654.84 600.63 644.15 604.74"/><polygon class="cls-2" points="634.6 583.14 629.33 572.6 641.13 566.87 646 578.02 634.6 583.14"/><polygon class="cls-2" points="623.75 562.25 617.89 552.09 630.23 545.03 635.89 555.85 623.75 562.25"/><polygon class="cls-2" points="611.77 542.12 608.54 537.26 605.37 532.36 617.38 524.16 620.75 529.28 624.07 534.45 611.77 542.12"/><polygon class="cls-2" points="598.66 522.84 591.6 513.62 602.34 504.66 610.14 514.21 598.66 522.84"/><polygon class="cls-2" points="584.15 504.74 576.26 496.28 584.95 487.07 593.94 495.59 584.15 504.74"/><path class="cls-2" d="M468.54,418.22c-2.88-2.55-5.83-5-8.89-7.34l6.13-8.85c3.5,2.22,6.92,4.56,10.22,7.07Z" transform="translate(99.35 70.11)"/><path class="cls-2" d="M450.24,404.21c-3.23-2.08-6.59-4-10-5.79l3.29-7.46a107.57,107.57,0,0,1,11.39,5Z" transform="translate(99.35 70.11)"/><path class="cls-2" d="M429.71,393.61c-1.8-.71-3.62-1.4-5.46-2s-3.71-1.19-5.6-1.7l.89-4.69c2,.23,4.07.52,6.09.87s4.05.76,6.06,1.25Z" transform="translate(99.35 70.11)"/><path class="cls-2" d="M407.15,387.38c-2-.27-3.93-.52-5.91-.81v-1.4c2-.17,4-.29,6.07-.43Z" transform="translate(99.35 70.11)"/><rect class="cls-2" x="580.12" y="760.07" width="18.2" height="2.8" transform="translate(89.8 77.59) rotate(-0.72)"/><path class="cls-3" d="M134.93,259.4s-1-104.25,10.09-137.78S175.31,40,175.31,40L246-70.11,319.66,43.62s22.21,54.67,25.24,70.71S369.13,224.41,358,259.4c0,0,67.64,32.81,75.71,48.84s18.17,27.71,9.09,53.22-38.36,99.88-38.36,99.88,2-51-18.17-80.92-50.48-26.25-50.48-26.25L325.72,382.6l-9.09.73s-1,8.75-7.06,9.48-127.2-1.46-127.2-1.46l-8.07-8-7.07-1.46-10.09-28.43s-45.43,7.29-48.46,24.79-18.17,83.11-18.17,83.11L52.15,359.27S34,331.57,62.25,306.79,134.93,259.4,134.93,259.4Z" transform="translate(99.35 70.11)"/><circle class="cls-2" cx="346.01" cy="144.34" r="54.68"/><circle class="cls-4" cx="345.3" cy="144.13" r="45.56"/><path class="cls-5" d="M200.46,73.6c0,1.35.07,2.69.19,4l38.72-49.09A45.56,45.56,0,0,0,200.46,73.6Z" transform="translate(99.35 70.11)"/><path class="cls-5" d="M253.75,28.7l-49.6,62.88a45.56,45.56,0,1,0,49.6-62.88Z" transform="translate(99.35 70.11)"/></svg>